<?xml version="1.0" encoding="UTF-8"?><svg id="a" xmlns="http://www.w3.org/2000/svg" width="176.42mm" height="64.77mm" viewBox="0 0 500.1 183.6"><path d="m48.13,33.19h13.71v.28c-2.17,3.5-2.84,6.62-2.84,13.43v15.32c-5.86,3.78-12.86,6.15-21.28,6.15-20.33,0-34.14-13.71-34.14-33.28S18.53.76,39.71.76c8.6,0,15.41,1.8,20.99,4.82v9.36h-.38c-4.44-6.05-11.63-9.08-20.14-9.08-17.78,0-29.03,12.2-29.03,29.03s10.97,28.56,27.61,28.56c4.73,0,9.08-.85,13.43-2.74v-13.81c0-6.81-.85-9.93-4.07-13.43v-.28Z" stroke-width="0"/><path d="m73.47,30.83c0-2.93,2.46-5.39,5.39-5.39s5.39,2.46,5.39,5.39-2.36,5.39-5.39,5.39-5.39-2.46-5.39-5.39Zm0,32.15c0-2.93,2.46-5.39,5.39-5.39s5.39,2.46,5.39,5.39-2.36,5.39-5.39,5.39-5.39-2.46-5.39-5.39Z" stroke-width="0"/><path d="m135.12,66.29c-1.8,1.32-3.78,1.99-6.15,1.99-3.97,0-7-2.74-7.19-7.09v-1.51h-.38c-3.78,6.43-9.08,8.7-14.18,8.7-6.43,0-11.91-4.35-11.91-10.97,0-7.56,6.71-10.78,16.08-13.24l10.31-2.74v-3.4c0-7.85-4.25-11.16-10.87-11.16-4.73,0-9.27,1.7-13.71,4.54l-.76-3.69c4.35-3.59,9.93-6.05,15.89-6.05,8.42,0,15.79,4.44,15.79,16.45v21.75c0,2.65,1.23,3.88,3.31,3.88,1.13,0,2.17-.28,3.31-.76l.47,3.31Zm-13.43-16.83v-4.25l-8.7,2.74c-6.34,1.99-10.97,3.88-10.97,8.79,0,4.16,3.03,6.62,7.19,6.62,5.77,0,12.48-5.11,12.48-13.9Z" stroke-width="0"/><path d="m165.85,61.94v-9.55h.38c5.11,7.66,12.01,10.87,18.91,10.87,7.66,0,14.75-4.35,14.75-12.1,0-5.3-3.03-8.13-9.83-11.25l-9.36-4.16c-8.98-4.07-13.14-9.74-13.14-16.93,0-9.93,8.6-18.06,21.09-18.06,6.52,0,12.67,2.08,16.36,4.54v9.17h-.38c-3.97-6.15-9.93-8.7-15.98-8.7-8.23,0-14.37,4.54-14.37,11.91,0,5.2,2.93,8.6,9.46,11.54l9.46,4.25c8.7,3.97,13.43,8.6,13.43,16.55,0,10.78-9.46,18.34-21.46,18.34-6.81,0-13.9-2.27-19.29-6.43Z" stroke-width="0"/><path d="m219.93,56.45v-29.03h-9.27v-4.25c8.6-.19,10.12-1.8,10.4-10.97h5.2v10.4h12.67v4.82h-12.67v28.84c0,5.11,2.46,7.19,6.43,7.19,2.08,0,4.07-.47,6.15-1.51l.66,3.69c-2.46,1.8-5.39,2.74-8.51,2.74-6.24,0-11.06-3.5-11.06-11.91Z" stroke-width="0"/><path d="m249.24,34.32c0-5.29-.47-8.13-2.36-10.59v-.38l8.51-1.04h.19v11.44h.38c2.65-8.23,7.56-12.1,13.71-12.1,1.32,0,2.36.09,3.31.38v6.34c-1.04-.28-2.17-.38-3.4-.38-7.28,0-13.99,6.05-13.99,18.72v9.83c0,5.29.28,7.94,2.36,10.59v.28h-10.78v-.28c1.8-2.65,2.08-5.3,2.08-10.59v-22.22Z" stroke-width="0"/><path d="m317.51,66.29c-1.8,1.32-3.78,1.99-6.15,1.99-3.97,0-7-2.74-7.19-7.09v-1.51h-.38c-3.78,6.43-9.08,8.7-14.18,8.7-6.43,0-11.91-4.35-11.91-10.97,0-7.56,6.71-10.78,16.07-13.24l10.31-2.74v-3.4c0-7.85-4.26-11.16-10.88-11.16-4.73,0-9.27,1.7-13.71,4.54l-.76-3.69c4.35-3.59,9.93-6.05,15.89-6.05,8.42,0,15.79,4.44,15.79,16.45v21.75c0,2.65,1.23,3.88,3.31,3.88,1.13,0,2.17-.28,3.31-.76l.47,3.31Zm-13.43-16.83v-4.25l-8.7,2.74c-6.33,1.99-10.97,3.88-10.97,8.79,0,4.16,3.03,6.62,7.19,6.62,5.77,0,12.48-5.11,12.48-13.9Z" stroke-width="0"/><path d="m324.51,34.32c0-5.29-.38-8.04-2.36-10.59v-.38l8.51-1.04h.28v7.94h.28c3.5-5.39,8.32-8.6,14.18-8.6,7.94,0,14.75,5.3,14.75,17.12v17.68c0,5.39.28,7.94,2.08,10.69v.28h-10.5v-.28c1.8-2.74,2.08-5.3,2.08-10.69v-17.68c0-7.38-3.69-11.91-9.93-11.91s-12.95,5.86-12.95,14.18v15.41c0,5.39.38,8.04,2.08,10.69v.28h-10.5v-.28c1.8-2.65,1.99-5.3,1.99-10.69v-22.13Z" stroke-width="0"/><path d="m369.42,45.48c0-14.37,9.17-23.83,20.52-23.83,5.86,0,10.68,2.74,13.62,6.9h.28V11.82c0-5.3-.47-7.94-2.36-10.4v-.38l8.51-1.04h.28v55.98c0,5.2.19,7.66,2.08,10.21v.38l-8.23,1.13h-.28v-8.13h-.28c-3.21,5.58-8.7,8.79-14.94,8.79-10.31,0-19.2-8.32-19.2-22.88Zm34.42,2.08v-4.92c0-10.31-5.11-16.55-13.24-16.55-8.79,0-14.47,7.56-14.47,18.82s5.48,18.25,13.99,18.25c7.57,0,13.71-6.43,13.71-15.6Z" stroke-width="0"/><path d="m463.03,27.04l-11.35-.09v.38c2.74,1.8,4.63,5.2,4.63,9.46,0,8.79-7,15.22-16.93,15.22-2.84,0-5.48-.47-7.75-1.42-3.12,1.32-5.2,3.22-5.2,5.86,0,2.46,1.7,4.25,6.15,4.25h14.37c8.98,0,15.51,3.31,15.51,10.87,0,9.27-10.4,15.89-24.4,15.89-12.2,0-19.57-5.01-19.57-12.01,0-3.97,2.84-7.47,7.28-9.93v-.19c-3.03-1.32-5.01-3.88-5.01-7.19,0-3.69,2.46-7.09,7.19-9.46v-.28c-3.59-2.65-5.67-6.71-5.67-11.54,0-8.89,7.19-15.22,17.21-15.22,1.89,0,3.88.19,5.86.85l17.49-1.61h.19v6.15Zm-31.58,39.34c-4.16,1.51-6.9,4.44-6.9,8.04,0,5.39,5.39,8.7,13.71,8.7,9.36,0,17.68-3.97,17.68-10.31,0-4.25-3.03-6.43-9.55-6.43h-14.94Zm18.53-29.6c0-6.71-4.35-10.87-10.59-10.87s-10.69,4.25-10.69,10.97,4.44,10.87,10.59,10.87,10.69-4.26,10.69-10.97Z" stroke-width="0"/><path d="m470.69,62.98c0-2.93,2.46-5.39,5.39-5.39s5.48,2.46,5.48,5.39-2.46,5.39-5.48,5.39-5.39-2.46-5.39-5.39Z" stroke-width="0"/><path d="m53.9,148.71c2.74,6.71,4.44,11.16,7.47,14.56v.28h-12.86v-.28c1.61-3.31.66-8.04-1.8-14.28l-2.46-6.05H15.41l-2.46,6.24c-2.36,6.15-3.31,10.69-1.51,14.09v.28H0v-.28c3.31-3.4,5.01-8.04,7.47-14.18l20.14-51.25h5.67l20.61,50.87Zm-36.59-10.78h24.96l-12.39-31.11h-.38l-12.2,31.11Z" stroke-width="0"/><path d="m63.16,141.61c0-14.37,9.17-23.83,20.52-23.83,5.86,0,10.69,2.74,13.62,6.9h.28v-16.74c0-5.29-.47-7.94-2.36-10.4v-.38l8.51-1.04h.28v55.98c0,5.2.19,7.66,2.08,10.21v.38l-8.23,1.13h-.28v-8.13h-.28c-3.22,5.58-8.7,8.79-14.94,8.79-10.31,0-19.2-8.32-19.2-22.88Zm34.42,2.08v-4.92c0-10.31-5.11-16.55-13.24-16.55-8.79,0-14.47,7.56-14.47,18.82s5.48,18.25,14,18.25c7.56,0,13.71-6.43,13.71-15.6Z" stroke-width="0"/><path d="m117.25,129.79c-1.7-4.44-3.03-7.85-5.67-10.78v-.28h11.63v.28c-1.42,3.03-.76,6.24,1.04,10.97l9.46,24.58h.38l9.65-24.3c1.89-4.82,2.65-8.32,1.32-11.25v-.28h10.02v.28c-2.74,2.93-4.16,6.15-6.24,11.35l-13.52,33.19h-4.73l-13.33-33.76Z" stroke-width="0"/><path d="m157.15,141.05c0-13.71,9.55-23.26,22.03-23.26s22.03,9.55,22.03,23.26-9.46,23.45-22.03,23.45-22.03-9.74-22.03-23.45Zm37.07,0c0-11.25-6.15-18.44-15.03-18.44s-15.13,7.28-15.13,18.44,6.15,18.63,15.13,18.63,15.03-7.19,15.03-18.63Z" stroke-width="0"/><path d="m226.74,137.17l23.26,26.29v.09h-8.7l-19.1-22.22-5.77,5.3v6.05c0,5.39.28,7.94,2.08,10.59v.28h-10.5v-.28c1.8-2.65,2.08-5.2,2.08-10.59v-45.2c0-5.48-.57-7.28-2.36-9.93v-.38l8.51-1.04h.19v44.25h.38l14.28-13.43c3.97-3.69,5.2-5.67,5.2-7.94v-.28h12.01v.28c-4.16,2.36-7,4.82-12.01,9.46l-9.55,8.7Z" stroke-width="0"/><path d="m293.12,162.42c-1.8,1.32-3.78,1.99-6.15,1.99-3.97,0-7-2.74-7.19-7.09v-1.51h-.38c-3.78,6.43-9.08,8.7-14.18,8.7-6.43,0-11.91-4.35-11.91-10.97,0-7.56,6.71-10.78,16.07-13.24l10.31-2.74v-3.4c0-7.85-4.26-11.16-10.88-11.16-4.73,0-9.27,1.7-13.71,4.54l-.76-3.69c4.35-3.59,9.93-6.05,15.89-6.05,8.42,0,15.79,4.44,15.79,16.45v21.75c0,2.65,1.23,3.88,3.31,3.88,1.13,0,2.17-.28,3.31-.76l.47,3.31Zm-13.43-16.83v-4.26l-8.7,2.74c-6.33,1.99-10.97,3.88-10.97,8.79,0,4.16,3.03,6.62,7.19,6.62,5.77,0,12.48-5.11,12.48-13.9Z" stroke-width="0"/><path d="m303.14,152.58v-29.03h-9.27v-4.26c8.6-.19,10.12-1.8,10.4-10.97h5.2v10.4h12.67v4.82h-12.67v28.84c0,5.11,2.46,7.19,6.43,7.19,2.08,0,4.07-.47,6.15-1.51l.66,3.69c-2.46,1.8-5.39,2.74-8.51,2.74-6.24,0-11.06-3.5-11.06-11.91Z" stroke-width="0"/><path d="m337.56,157.31h-.28l-1.8,6.24h-4.25v-55.7c0-5.67-.57-7.94-2.36-10.31v-.38l8.51-1.04h.19v30.45h.38c3.12-5.29,8.23-8.79,14.94-8.79,10.21,0,19.1,8.32,19.1,22.79s-9.55,23.92-20.52,23.92c-5.67,0-10.87-2.55-13.9-7.19Zm27.8-16.17c0-10.59-5.2-18.25-13.9-18.25-7.85,0-13.9,6.43-13.9,15.89v4.63c0,10.4,5.2,16.64,13.24,16.64,9.08,0,14.56-7.85,14.56-18.91Z" stroke-width="0"/><path d="m411.12,118.73h9.74v.28c-2.74,3.03-4.07,6.24-6.05,11.25l-15.7,39.53c-4.44,11.06-10.31,13.81-16.07,13.81-2.27,0-4.26-.38-5.86-1.23v-5.77c1.8.76,3.59,1.04,5.58,1.04,4.92,0,9.08-1.99,12.1-9.64l1.7-4.44-13.43-33.19c-2.08-5.01-3.59-8.42-6.24-11.35v-.28h11.54v.28c-1.61,2.93-.38,6.24,1.51,11.25l9.65,24.59h.38l9.74-24.77c1.8-4.73,2.74-8.04,1.42-11.06v-.28Z" stroke-width="0"/><path d="m430.88,130.46c0-5.29-.47-8.13-2.36-10.59v-.38l8.51-1.04h.19v11.44h.38c2.65-8.23,7.56-12.1,13.71-12.1,1.32,0,2.36.09,3.31.38v6.34c-1.04-.28-2.17-.38-3.4-.38-7.28,0-13.99,6.05-13.99,18.72v9.83c0,5.29.28,7.94,2.36,10.59v.28h-10.78v-.28c1.8-2.65,2.08-5.3,2.08-10.59v-22.22Z" stroke-width="0"/><path d="m500.1,162.42c-1.8,1.32-3.78,1.99-6.15,1.99-3.97,0-7-2.74-7.19-7.09v-1.51h-.38c-3.78,6.43-9.08,8.7-14.18,8.7-6.43,0-11.91-4.35-11.91-10.97,0-7.56,6.71-10.78,16.07-13.24l10.31-2.74v-3.4c0-7.85-4.26-11.16-10.88-11.16-4.73,0-9.27,1.7-13.71,4.54l-.76-3.69c4.35-3.59,9.93-6.05,15.89-6.05,8.42,0,15.79,4.44,15.79,16.45v21.75c0,2.65,1.23,3.88,3.31,3.88,1.13,0,2.17-.28,3.31-.76l.47,3.31Zm-13.43-16.83v-4.26l-8.7,2.74c-6.33,1.99-10.97,3.88-10.97,8.79,0,4.16,3.03,6.62,7.19,6.62,5.77,0,12.48-5.11,12.48-13.9Zm-18.25-41.51c0-4.82,3.97-8.79,8.98-8.79s8.98,3.97,8.98,8.79-3.97,8.79-8.98,8.79-8.98-3.88-8.98-8.79Zm4.16,0c0,2.93,2.08,4.92,4.82,4.92s4.73-1.99,4.73-4.92-2.08-4.92-4.73-4.92-4.82,1.99-4.82,4.92Z" stroke-width="0"/></svg>