<svg width="130" height="40" viewBox="0 0 130 40" fill="none" xmlns="http://www.w3.org/2000/svg">
<path d="M15.0041 31.4452H0.034668V31.0627C2.36108 31.0627 2.49792 29.6286 2.49792 27.2702V12.4187C2.49792 10.0603 2.36108 8.6261 0.034668 8.6261V8.24365H7.97182V8.6261C5.64542 8.6261 5.50857 10.0603 5.50857 12.4187V29.0549C5.50857 30.0429 5.81648 30.5528 6.84283 30.5528H9.23766C12.9326 30.5528 13.3277 29.8517 15.4488 25.8041H15.8594L15.0041 31.4452Z" fill="black"/>
<path d="M30.6602 27.4295L31.276 27.7801C30.0786 29.5648 27.9917 31.8276 24.3652 31.8276C19.815 31.8276 17.0439 28.0988 17.0439 23.382C17.0439 18.0916 20.7045 14.3627 25.1521 14.3627C28.847 14.3627 31.5155 16.8486 31.2418 21.0555H20.0203C19.9861 21.4379 19.9519 21.8204 19.9519 22.2347C19.9519 26.6646 21.8678 30.0747 25.6653 30.0747C27.9917 30.0747 29.5654 28.7043 30.6602 27.4295ZM25.0152 15.1914C22.3809 15.1914 20.7045 17.2948 20.1572 20.0994H28.2996C28.5391 16.9442 27.5127 15.1914 25.0152 15.1914Z" fill="black"/>
<path d="M36.6494 28.0032H42.108C45.7686 28.0032 47.7187 29.3099 47.7187 32.0507C47.7187 36.4169 42.5527 39.094 38.64 39.094C34.603 39.094 32.4756 37.0862 32.4756 34.4728C32.4756 33.0068 33.2967 31.987 34.6652 31.0309L35.0757 30.744H35.8968C35.0415 31.5089 34.7336 32.465 34.7336 33.5167C34.7336 36.162 36.6899 37.7236 40.2822 37.7236C42.9975 37.7236 45.8028 36.0345 45.8028 33.453C45.8028 31.5726 44.5028 30.3934 41.9027 30.3934H35.7941C33.9125 30.3934 33.0914 29.4692 33.0914 28.3538C33.0914 27.0471 34.0836 26.1547 36.1363 25.0711C34.1178 24.2106 32.8519 22.4259 32.8519 20.0675C32.8519 16.6255 35.5889 14.3627 39.3522 14.3627C40.5496 14.3627 41.6786 14.5858 42.6023 15.0001L48.5552 14.5221L47.9394 16.2749L44.0734 15.9562C45.134 16.9442 45.7498 18.2828 45.7498 19.9719C45.7498 23.4139 43.0813 25.6767 39.2838 25.6767C38.4627 25.6767 37.71 25.581 36.9916 25.3898C35.7599 26.1547 35.4178 26.6009 35.4178 27.1108C35.4178 27.6207 35.7942 28.0032 36.6494 28.0032ZM39.318 15.1914C36.8547 15.1914 35.5889 17.008 35.5889 20.0038C35.5889 22.9996 36.8205 24.848 39.318 24.848C41.7812 24.848 43.0129 22.9996 43.0129 20.0038C43.0129 17.008 41.7812 15.1914 39.318 15.1914Z" fill="black"/>
<path d="M63.1953 29.5648L63.6743 29.9791C63.1269 30.7122 61.9979 31.8276 60.4584 31.8276C58.8504 31.8276 58.4057 30.4891 58.3373 29.3417C56.9004 30.9034 54.5118 31.8276 52.6302 31.8276C50.3037 31.8276 48.6616 29.9908 48.6616 27.9193C48.6616 25.529 50.509 23.7443 54.6829 22.6288L58.2004 21.7683V19.94C58.2004 19.0158 57.933 15.9244 54.5802 15.9244C52.3565 15.9244 50.7827 17.2948 49.7906 19.0795L49.1063 18.8246C49.6537 17.1036 52.0423 14.3627 56.0109 14.3627C59.3294 14.3627 60.9374 16.498 60.9374 19.4938V27.9713C60.9374 29.023 60.9374 30.1385 61.9979 30.1385C62.5111 30.1385 62.9217 29.8198 63.1953 29.5648ZM54.1697 30.2341C55.5724 30.2341 57.2767 29.4055 58.2004 28.6406V22.6288L55.5039 23.3618C53.1775 24.0311 51.4327 24.8597 51.4327 27.1225C51.4327 28.8435 52.5959 30.2341 54.1697 30.2341Z" fill="black"/>
<path d="M69.9168 31.4452H64.135V31.0627C65.5377 31.0627 65.6403 29.9791 65.6403 27.9394V11.5406C65.6403 9.50094 65.0587 8.83166 63.8955 8.54483V8.16239L68.1378 7.27002H68.4115V27.9394C68.4115 29.9791 68.5141 31.0627 69.9168 31.0627V31.4452Z" fill="black"/>
<path d="M75.8623 16.2664L76.136 16.2983C83.7652 16.9357 87.2548 19.804 87.2548 24.2658C87.2548 28.8551 83.3547 31.9784 77.8808 31.9784C75.9307 31.9784 73.5017 31.596 72.27 31.1498L72.7148 26.6242H73.3306C73.8096 28.0584 75.2123 30.6399 78.0861 30.6399C80.6862 30.6399 82.6704 29.1738 82.6704 26.4967C82.6704 23.5647 80.3098 21.4613 75.1438 21.0151L73.3306 20.8557L74.8017 8.01202C78.0519 8.58569 80.5151 8.71317 82.2257 8.71317C85.0995 8.71317 85.8864 8.29886 86.5364 7.8208H87.1522C85.6469 12.3782 83.6626 13.6212 79.9335 13.6212C79.1466 13.6212 77.8124 13.5574 76.2044 13.3662L75.8623 16.2664Z" fill="black"/>
<path d="M98.6848 31.9784C92.424 31.9784 89.0029 27.3254 89.0029 20.059C89.0029 12.92 92.5609 8.01202 98.7532 8.01202C104.98 8.01202 108.435 12.6651 108.435 19.9315C108.435 27.0704 104.877 31.9784 98.6848 31.9784ZM98.719 30.6399C101.319 30.6399 101.866 26.6242 101.866 19.9952C101.866 13.5574 101.285 9.35057 98.719 9.35057C96.1189 9.35057 95.5715 13.3662 95.5715 19.9952C95.5715 26.433 96.1531 30.6399 98.719 30.6399Z" fill="black"/>
<path d="M120.185 31.9784C113.924 31.9784 110.503 27.3254 110.503 20.059C110.503 12.92 114.061 8.01202 120.253 8.01202C126.48 8.01202 129.935 12.6651 129.935 19.9315C129.935 27.0704 126.377 31.9784 120.185 31.9784ZM120.219 30.6399C122.819 30.6399 123.366 26.6242 123.366 19.9952C123.366 13.5574 122.785 9.35057 120.219 9.35057C117.619 9.35057 117.071 13.3662 117.071 19.9952C117.071 26.433 117.653 30.6399 120.219 30.6399Z" fill="black"/>
</svg>
